<?xml version="1.0" encoding="UTF-8"?>
<svg version="1.1" xmlns="http://www.w3.org/2000/svg" width="878" height="284">
<path d="M0 0 C21.93641283 13.72471523 27.50722067 50.56429624 33.24780273 73.55664062 C34.95392042 80.22852567 37.32509954 86.57831042 39.86328125 92.97265625 C41 96 41 96 41 98 C41.66 98 42.32 98 43 98 C43 98.66 43 99.32 43 100 C45.80764728 100.77426109 45.80764728 100.77426109 49 101 C51.24755753 99.6483633 51.24755753 99.6483633 53 98 C53.66 98 54.32 98 55 98 C55.26272705 97.28827637 55.5254541 96.57655273 55.79614258 95.84326172 C57.05626159 92.86712178 58.57446223 90.26283599 60.26171875 87.5078125 C64.00718259 81.17142138 66.93617224 74.63998616 69.8125 67.875 C73.37680108 59.6840809 77.02722602 51.62050701 81.375 43.8125 C81.75503174 43.12591309 82.13506348 42.43932617 82.52661133 41.73193359 C87.45309923 33.11406422 92.09360708 25.99739574 102 23 C108.13742058 22.43190818 114.09083513 24.33940886 119 28 C136.55700263 44.42631909 142.92878781 72.84968859 149.2565918 95.12866211 C150.67218633 100.05350875 152.29281207 104.87860154 154.0625 109.6875 C154.29606201 110.33541504 154.52962402 110.98333008 154.77026367 111.65087891 C157.75668272 119.56276143 161.44999341 124.36226955 169 128 C173.61963457 129.66964321 178.0895819 130.24552091 183 130 C182.835 129.113125 182.67 128.22625 182.5 127.3125 C180.72177463 114.17486482 182.37337515 103.05537385 190.18359375 92.1328125 C197.55705338 83.47494377 206.65907298 78.81492061 217.8125 77.0625 C227.70892072 76.41536563 237.12030331 79.09914117 245 85 C245.59039062 85.33386719 246.18078125 85.66773438 246.7890625 86.01171875 C252.81784981 89.58384163 256.34037703 95.63965164 259 102 C258.80712891 104.02246094 258.80712891 104.02246094 258 106 C256.38037109 107.32104492 256.38037109 107.32104492 254.2734375 108.48046875 C253.49564941 108.91810547 252.71786133 109.35574219 251.91650391 109.80664062 C251.07780762 110.26232422 250.23911133 110.71800781 249.375 111.1875 C247.64001399 112.15906594 245.90564672 113.13173755 244.171875 114.10546875 C243.30240234 114.58935059 242.43292969 115.07323242 241.53710938 115.57177734 C237.85648268 117.64372366 234.23773442 119.81242639 230.625 122 C230.02606934 122.3611792 229.42713867 122.7223584 228.81005859 123.09448242 C227.20608279 124.06195625 225.60300964 125.03092616 224 126 C223.03835938 126.53625 222.07671875 127.0725 221.0859375 127.625 C220.39757812 128.07875 219.70921875 128.5325 219 129 C219 129.66 219 130.32 219 131 C226.86557071 134.71017486 233.26002743 134.33051862 241.5625 132 C245.86643301 129.49589352 249.25590239 126.37496527 252.86328125 122.9609375 C255 121 255 121 257 120 C257.26554687 120.95261719 257.53109375 121.90523438 257.8046875 122.88671875 C258.33449219 124.76810547 258.33449219 124.76810547 258.875 126.6875 C259.22304688 127.92886719 259.57109375 129.17023438 259.9296875 130.44921875 C260.9025453 133.89808593 260.9025453 133.89808593 262.1328125 136.70703125 C263 139 263 139 263 143 C245.80478941 152.97787848 228.04048122 157.22736974 208.25 152.875 C203.53765264 151.47275644 199.76323577 149.24175192 195.83984375 146.3046875 C193.92670311 144.81400498 193.92670311 144.81400498 191 144 C188.47250382 145.00626311 186.07187459 146.07529381 183.625 147.25 C169.17438881 153.8347182 152.15023077 157.72838524 136.55078125 153 C128.82580116 149.97152388 125.13377628 145.04132534 121 138 C120.1646875 136.63875 120.1646875 136.63875 119.3125 135.25 C118.08011851 132.1983887 117.42049286 129.46194186 116.75 126.25 C115.47894228 120.44996293 113.71391239 114.98330493 111.625 109.4375 C111.34495117 108.66374023 111.06490234 107.88998047 110.77636719 107.09277344 C109.00517576 102.52939802 107.41149907 99.5395369 103 97 C99.27692654 97.32559083 99.27692654 97.32559083 96 99 C94.91074399 100.79558241 94.91074399 100.79558241 94 103 C91.80222681 107.03825026 89.55397171 111.04837636 87.3125 115.0625 C86.71244141 116.14466797 86.11238281 117.22683594 85.49414062 118.34179688 C65.94513798 153.34522052 65.94513798 153.34522052 47 160 C38.19898175 161.83416179 29.94386851 161.13244442 22.25 156.3125 C15.70628088 151.87925517 11.33117181 145.64837736 8.0625 138.5625 C7.72895508 137.8502124 7.39541016 137.1379248 7.05175781 136.40405273 C3.75345232 129.02187089 1.54553785 121.342775 -0.56616211 113.55102539 C-3.2188368 101.62046959 -3.2188368 101.62046959 -10 92 C-14.67641882 91.81661103 -17.39522709 92.99948815 -20.875 95.9375 C-25.54766777 100.34806455 -29.78441778 105.15705346 -34 110 C-34.89525391 111.02287109 -34.89525391 111.02287109 -35.80859375 112.06640625 C-36.36675781 112.70449219 -36.92492187 113.34257812 -37.5 114 C-38.66647897 115.33349755 -39.83315218 116.66682519 -41 118 C-41.94359375 119.08474609 -41.94359375 119.08474609 -42.90625 120.19140625 C-53.94926501 132.69720869 -65.58343213 144.07767339 -79 154 C-79.80179688 154.63164062 -80.60359375 155.26328125 -81.4296875 155.9140625 C-113.47675496 180.19886448 -159.99658739 182.20058887 -198.43164062 177.36376953 C-208.84772265 175.88848795 -219.04914698 173.43874528 -229.125 170.4375 C-229.80667236 170.23987061 -230.48834473 170.04224121 -231.19067383 169.83862305 C-233.0703125 169.24609375 -233.0703125 169.24609375 -236 168 C-236.33 167.01 -236.66 166.02 -237 165 C-236.20754883 164.9906543 -235.41509766 164.98130859 -234.59863281 164.97167969 C-215.45279462 164.69085203 -196.8993625 163.33879523 -178 160 C-177.14132324 159.85191895 -176.28264648 159.70383789 -175.39794922 159.55126953 C-142.87661887 153.75704693 -115.37866359 137.87585536 -92 115 C-90.66195312 113.69095703 -90.66195312 113.69095703 -89.296875 112.35546875 C-78.69084732 101.47887914 -70.85259838 87.64291756 -63.16015625 74.6328125 C-61.09390033 71.13978967 -58.95832593 67.69472246 -56.8125 64.25 C-53.84110064 59.44280539 -51.08575346 54.56012211 -48.40625 49.5859375 C-19.18031499 -4.15730965 -19.18031499 -4.15730965 0 0 Z M217 102 C212.85368338 106.491843 211.86666387 109.66642891 211.9375 115.6875 C211.94652344 116.68136719 211.95554687 117.67523438 211.96484375 118.69921875 C211.97644531 119.45847656 211.98804688 120.21773437 212 121 C216.66079018 118.77341667 220.9802408 116.23000777 225.3125 113.4375 C225.94478516 113.03853516 226.57707031 112.63957031 227.22851562 112.22851562 C230.67221666 110.15639199 230.67221666 110.15639199 233 107 C230.77636302 103.62007179 229.34234082 102.1431607 225.5625 100.5625 C221.70149562 99.95286773 220.28395799 99.95862071 217 102 Z " fill="#227ADD" transform="translate(244,66)"/>
<path d="M0 0 C2.46113586 1.83294678 2.46113586 1.83294678 4.88793945 4.25683594 C5.80521317 5.16157654 6.72248688 6.06631714 7.66755676 6.99847412 C8.65003078 7.99321585 9.63192527 8.98853026 10.61328125 9.984375 C11.63283863 11.00310321 12.65321198 12.02101538 13.67436218 13.03814697 C15.80799489 15.1689258 17.93260813 17.30819767 20.05102539 19.45410156 C22.76392917 22.20110879 25.49643992 24.9275694 28.23577595 27.64818954 C30.34420431 29.74603924 32.44275737 31.85354638 34.53838158 33.96417999 C35.54228941 34.97326225 36.54902857 35.97953599 37.55864906 36.98290253 C38.96857328 38.38736417 40.36414255 39.80619209 41.7590332 41.22558594 C42.95433403 42.43018463 42.95433403 42.43018463 44.17378235 43.65911865 C46.16092802 46.20628067 46.75636394 47.80180507 47 51 C46.0625 52.8125 46.0625 52.8125 44 54 C41.32520885 54.15895481 38.6820118 54.05142101 36 54 C36.00999275 54.94840508 36.00999275 54.94840508 36.02018738 55.91596985 C36.08646147 62.48551355 36.13176761 69.05496259 36.16479492 75.62475586 C36.17989881 78.07792008 36.20038321 80.53105724 36.22631836 82.98413086 C36.26263057 86.50641555 36.27971036 90.02834381 36.29296875 93.55078125 C36.30845261 94.65086014 36.32393646 95.75093903 36.33988953 96.88435364 C36.34011612 97.90518539 36.34034271 98.92601715 36.34057617 99.9777832 C36.35056892 101.32680473 36.35056892 101.32680473 36.36076355 102.70307922 C35.92336192 105.48794173 35.23194346 106.32744763 33 108 C29.60692708 109.13102431 26.98292893 109.14774699 23.40478516 109.17700195 C22.73938217 109.18357315 22.07397919 109.19014435 21.38841248 109.19691467 C19.18862795 109.21660918 16.98891152 109.22830055 14.7890625 109.23828125 C14.03680767 109.24235678 13.28455284 109.2464323 12.50950241 109.25063133 C8.52912421 109.27147398 4.54878031 109.28578442 0.56835938 109.29516602 C-3.53978141 109.30623698 -7.64738151 109.34064931 -11.75533104 109.38033772 C-14.91752116 109.40649357 -18.0795821 109.41485681 -21.24187088 109.41844749 C-22.75612675 109.42331484 -24.27037679 109.4349332 -25.78452682 109.45348549 C-27.90545211 109.47786063 -30.02497333 109.47691619 -32.14599609 109.4699707 C-33.35162201 109.47583694 -34.55724792 109.48170319 -35.79940796 109.48774719 C-39.69404593 108.8942324 -41.34325396 107.88938519 -44 105 C-44.60127258 102.58282471 -44.60127258 102.58282471 -44.56762695 99.86425781 C-44.56706047 98.33312347 -44.56706047 98.33312347 -44.56648254 96.77105713 C-44.5277729 95.12868073 -44.5277729 95.12868073 -44.48828125 93.453125 C-44.48120651 92.3267865 -44.47413177 91.200448 -44.46684265 90.03997803 C-44.43885492 86.442643 -44.37610397 82.84686456 -44.3125 79.25 C-44.28742299 76.81122039 -44.26460879 74.37241639 -44.24414062 71.93359375 C-44.18901378 65.9551981 -44.10534231 59.97771025 -44 54 C-45.32 54 -46.64 54 -48 54 C-47.67 54.33 -47.34 54.66 -47 55 C-46.90053547 56.76859193 -46.86919783 58.54111451 -46.8671875 60.3125 C-46.86525391 61.92511719 -46.86525391 61.92511719 -46.86328125 63.5703125 C-46.86714844 64.70210938 -46.87101563 65.83390625 -46.875 67 C-46.86919922 68.69769531 -46.86919922 68.69769531 -46.86328125 70.4296875 C-46.86457031 71.50476563 -46.86585938 72.57984375 -46.8671875 73.6875 C-46.86831543 74.68136719 -46.86944336 75.67523438 -46.87060547 76.69921875 C-47 79 -47 79 -48 80 C-51.3 80 -54.6 80 -58 80 C-58 89.24 -58 98.48 -58 108 C-67.57 108 -77.14 108 -87 108 C-87.09067008 98.65470438 -87.16392772 89.30970489 -87.20724869 79.96406746 C-87.22804935 75.62366407 -87.2562278 71.28357939 -87.30175781 66.94335938 C-87.34548621 62.74822773 -87.36919356 58.55340104 -87.37950897 54.35805893 C-87.38685225 52.76419149 -87.40119107 51.17033917 -87.42292023 49.57660294 C-87.5391059 40.69492984 -87.31836866 33.02598306 -83 25 C-82.53078125 24.09765625 -82.0615625 23.1953125 -81.578125 22.265625 C-78.08679094 16.96701214 -74.31981821 13.43571593 -69 10 C-68.154375 9.4225 -67.30875 8.845 -66.4375 8.25 C-60.34306828 5.1246504 -54.71929332 4.71750064 -48.00390625 4.8046875 C-46.75358864 4.80893234 -46.75358864 4.80893234 -45.47801208 4.81326294 C-42.8393564 4.82437711 -40.20105152 4.84946485 -37.5625 4.875 C-35.76367681 4.88504115 -33.96484825 4.89416501 -32.16601562 4.90234375 C-27.77721045 4.92428765 -23.38866452 4.95875613 -19 5 C-20.62123671 9.86371014 -24.5189862 12.6165246 -28.375 15.8125 C-31.54425873 18.49418046 -34.15722539 21.42017244 -36.8359375 24.58203125 C-40.21723546 28.3600519 -43.8458559 31.88722682 -47.46923828 35.43188477 C-49.75132818 37.67898579 -51.85862381 39.80857915 -53.765625 42.390625 C-54.17296875 42.92171875 -54.5803125 43.4528125 -55 44 C-55.66 44 -56.32 44 -57 44 C-57 46.64 -57 49.28 -57 52 C-56.01 52 -55.02 52 -54 52 C-54.08643768 51.11081375 -54.17287537 50.2216275 -54.26193237 49.30549622 C-53.92949827 45.11029248 -52.77202437 44.03735224 -49.80908203 41.11206055 C-48.89458282 40.19478683 -47.98008362 39.27751312 -47.03787231 38.33244324 C-46.02823965 37.35013688 -45.01821011 36.36823828 -44.0078125 35.38671875 C-42.98003763 34.36760217 -41.9535141 33.3472222 -40.92819214 32.32563782 C-38.22959497 29.6442492 -35.51303214 26.98178385 -32.79272461 24.32244873 C-30.57196474 22.14533357 -28.36431044 19.95519165 -26.15722847 17.76422405 C-23.52833588 15.15492059 -20.89400242 12.55114759 -18.2578125 9.94921875 C-17.75379032 9.45162237 -17.24976814 8.95402599 -16.73047256 8.44135094 C-15.30644904 7.03827521 -13.87817935 5.63951295 -12.44970703 4.2409668 C-11.6369632 3.44409958 -10.82421936 2.64723236 -9.98684692 1.82621765 C-6.45914331 -1.41628409 -4.58639364 -1.1948031 0 0 Z M-2 41 C-3.485 41.86625 -3.485 41.86625 -5 42.75 C-5.66 43.1625 -6.32 43.575 -7 44 C-6.67 44.99 -6.34 45.98 -6 47 C-2.29655972 45.76551991 -0.69749018 43.76665659 2 41 C6.45083345 38.77458328 12.52251213 39.52720388 17.125 41 C17.74375 41.33 18.3625 41.66 19 42 C16.62678484 38.8013187 14.59106653 37.63022681 10.75 37 C5.61644505 36.62849273 2.26693296 38.32852893 -2 41 Z M-34 46 C-36.42783389 53.47772839 -35.57422123 61.40032345 -32.38671875 68.46875 C-27.02310624 78.25923143 -19.19055362 88.54177313 -10 95 C-11.30286696 92.08107691 -12.62167754 90.24033488 -15 88.125 C-23.90236078 79.40927152 -32.48095863 68.03012381 -33.14453125 55.20703125 C-32.8614217 50.02689162 -31.94382565 46.61517352 -28 43 C-24.00261746 39.86691639 -21.02373423 39.47118587 -16 40 C-13.97762948 40.95394836 -11.9717304 41.94535351 -10 43 C-9.34 42.67 -8.68 42.34 -8 42 C-12.46953737 38.23617906 -15.75704604 37.36365959 -21.6015625 37.609375 C-26.81412481 38.45832652 -30.68343337 42.06925437 -34 46 Z M20 43 C20.33 43.99 20.66 44.98 21 46 C21 45.01 21 44.02 21 43 C20.67 43 20.34 43 20 43 Z M11 59 C10.33985372 61.05592173 10.33985372 61.05592173 10 63 C9.5153125 62.566875 9.030625 62.13375 8.53125 61.6875 C5.13317401 58.86448302 2.34164017 56.56268108 -2.1875 56.3125 C-6.83714629 57.15096081 -8.29768722 58.1512515 -11 62 C-12.34857671 66.20438622 -12.29130137 68.98267879 -10.5 72.9375 C-7.97325196 77.48386707 -4.56057278 81.23939505 -1 85 C2.32759923 83.44805246 4.48580485 81.69378051 7 79 C6.67 78.01 6.34 77.02 6 76 C5.625 72.5 5.625 72.5 6 69 C8.125 67 8.125 67 11 66 C14.3125 66.3125 14.3125 66.3125 17 67 C18.28571429 74.42857143 18.28571429 74.42857143 17 78 C16.13375 78 15.2675 78 14.375 78 C9.98299035 79.30133619 8.79102386 81.39555337 6.296875 85.08984375 C5 87 5 87 3 89 C6.465 91.475 6.465 91.475 10 94 C23.60714539 81.86495046 23.60714539 81.86495046 29.171875 65.234375 C28.93033961 62.09441488 28.10934715 60.32755547 26 58 C21.05387921 54.41832633 15.59315295 55.32547764 11 59 Z M10 70 C10 71.32 10 72.64 10 74 C11.32 73.67 12.64 73.34 14 73 C13.67 72.01 13.34 71.02 13 70 C12.01 70 11.02 70 10 70 Z " fill="#44C85C" transform="translate(711,112)"/>
<path d="M0 0 C1.10688626 0.88808316 2.19152172 1.80474203 3.25 2.75 C4.61125 3.86375 4.61125 3.86375 6 5 C9.08914394 4.67450372 10.93155072 3.47748785 13.3125 1.5625 C20.21728732 -3.47770341 27.71357707 -3.67070264 36 -3 C43.02904579 -1.78809555 48.44912878 1.50722733 53 7 C57.84171664 15.38590127 59.13049051 22.80900155 59.24609375 32.31640625 C59.27901355 34.15039573 59.31222549 35.98437999 59.34570312 37.81835938 C59.3932003 40.69747555 59.43769112 43.57656778 59.47680664 46.45581055 C59.51650319 49.24288867 59.56802929 52.02955509 59.62109375 54.81640625 C59.6295079 55.67690079 59.63792206 56.53739532 59.64659119 57.42396545 C59.66323318 58.2283757 59.67987518 59.03278595 59.69702148 59.86157227 C59.71248268 60.91816795 59.71248268 60.91816795 59.72825623 61.99610901 C60.053255 64.39271261 60.67062384 65.97919994 62 68 C65.05908413 68.81584568 65.05908413 68.81584568 68 69 C64.61384217 73.43188304 59.10852489 73.59188906 53.94140625 74.4921875 C46.5969228 75.43845395 39.26582679 75.38607875 33 71 C29.7302062 66.79177243 29.54567896 62.88561036 29.5234375 57.7421875 C29.50785797 56.95731964 29.49227844 56.17245178 29.47622681 55.36380005 C29.42887924 52.86754296 29.40100085 50.37156278 29.375 47.875 C29.33845945 45.37149172 29.29781453 42.86813862 29.25234985 40.36477661 C29.2252134 38.81007995 29.20382316 37.25526995 29.18881226 35.70040894 C29.14282009 32.5435591 29.00557814 30.01673443 28 27 C26.68 27 25.36 27 24 27 C23.08812389 29.73562834 22.85269741 31.46145475 22.79467773 34.2878418 C22.77473251 35.14850754 22.75478729 36.00917328 22.73423767 36.8959198 C22.71752518 37.82100845 22.70081268 38.74609711 22.68359375 39.69921875 C22.6524221 41.12449638 22.6524221 41.12449638 22.62062073 42.5785675 C22.55521948 45.61480456 22.49628396 48.65112831 22.4375 51.6875 C22.39430583 53.74545169 22.35069124 55.80339459 22.30664062 57.86132812 C22.19875631 62.9074645 22.09961263 67.95366639 22 73 C12.43 73 2.86 73 -7 73 C-7.33 57.49 -7.66 41.98 -8 26 C-9.65 26.33 -11.3 26.66 -13 27 C-13.79471647 29.82321366 -14.14356017 32.38028224 -14.20532227 35.30957031 C-14.22526749 36.15013977 -14.24521271 36.99070923 -14.26576233 37.85675049 C-14.29083107 39.20383087 -14.29083107 39.20383087 -14.31640625 40.578125 C-14.33718735 41.5046991 -14.35796844 42.43127319 -14.37937927 43.38592529 C-14.44466961 46.34054272 -14.50366431 49.29524768 -14.5625 52.25 C-14.60570473 54.25521732 -14.64931965 56.26042585 -14.69335938 58.265625 C-14.80110052 63.17699499 -14.90032658 68.08843313 -15 73 C-24.57 73 -34.14 73 -44 73 C-44 55.84 -44 38.68 -44 21 C-41.69 20.34 -39.38 19.68 -37 19 C-34.66332611 16.18789679 -34.66332611 16.18789679 -35.3125 13.0625 C-35.84337717 10.69768353 -36.40632904 8.3493133 -37 6 C-26.68963865 -2.68093095 -12.60320504 -7.26238497 0 0 Z " fill="#267CDE" transform="translate(794,147)"/>
<path d="M0 0 C1.16781006 0.00523682 2.33562012 0.01047363 3.53881836 0.01586914 C4.79887695 0.0190918 6.05893555 0.02231445 7.35717773 0.02563477 C8.6976732 0.03399136 10.03816799 0.04245632 11.37866211 0.05102539 C12.72306153 0.05603879 14.06746271 0.06060197 15.41186523 0.06469727 C18.71334151 0.07653051 22.01473014 0.09301568 25.31616211 0.11352539 C25.38593591 9.32841402 25.43911155 18.54321051 25.47159863 27.7583065 C25.48719753 32.03810388 25.50832907 36.31771938 25.54248047 40.59741211 C25.5752815 44.73417553 25.59305846 48.87076495 25.60079384 53.00764847 C25.60630037 54.57916627 25.61705247 56.15067547 25.63335228 57.72211838 C25.77329491 71.78399492 24.06483216 82.60962434 14.31225586 93.31274414 C5.43841363 101.90084548 -3.69920972 103.73996249 -15.69287109 103.58007812 C-29.06731062 103.06020479 -36.52911993 97.75126229 -45.53540039 88.13696289 C-51.95205305 80.45594518 -53.30596237 71.16096022 -53.02758789 61.38305664 C-51.73904592 49.12726537 -46.01959821 40.63733728 -36.87133789 32.73852539 C-27.59586748 25.74710475 -17.97346985 25.3560275 -6.68383789 26.11352539 C-5.68383789 27.11352539 -5.68383789 27.11352539 -5.5703125 29.98095703 C-5.57554932 31.23255615 -5.58078613 32.48415527 -5.58618164 33.77368164 C-5.58759659 34.43814804 -5.58901154 35.10261444 -5.59046936 35.78721619 C-5.59608271 37.91686438 -5.60863735 40.04640879 -5.62133789 42.17602539 C-5.62635118 43.61677908 -5.63091438 45.05753442 -5.63500977 46.49829102 C-5.64605644 50.03673641 -5.66332997 53.57512078 -5.68383789 57.11352539 C-6.5874707 57.06711914 -7.49110352 57.02071289 -8.42211914 56.97290039 C-9.60161133 56.93680664 -10.78110352 56.90071289 -11.99633789 56.86352539 C-13.1680957 56.81711914 -14.33985352 56.77071289 -15.54711914 56.72290039 C-18.7535707 56.79634969 -18.7535707 56.79634969 -20.5769043 59.00415039 C-22.36123465 62.40437408 -22.21371915 65.37363884 -21.68383789 69.11352539 C-20.93847039 71.69069899 -20.93847039 71.69069899 -18.68383789 73.11352539 C-15.64126449 73.99518018 -12.84638179 74.37087526 -9.68383789 74.11352539 C-7.13231821 72.26367362 -6.07407074 70.89399109 -4.68383789 68.11352539 C-4.56829574 65.99520991 -4.51685398 63.87329836 -4.49438477 61.75195312 C-4.48609146 61.09977814 -4.47779816 60.44760315 -4.46925354 59.77566528 C-4.45184798 58.35863617 -4.43668253 56.94157819 -4.42347717 55.52450371 C-4.40247482 53.28506265 -4.37545172 51.04576716 -4.34680176 48.80641174 C-4.27691722 43.24577035 -4.21749529 37.68502575 -4.15777588 32.12426758 C-4.10692389 27.42502215 -4.0521291 22.72585568 -3.99195862 18.02672005 C-3.96530034 15.81474753 -3.94453848 13.60276798 -3.9239502 11.39073181 C-3.9073544 10.04238531 -3.8904832 8.69404216 -3.87329102 7.34570312 C-3.86076294 6.16370834 -3.84823486 4.98171356 -3.83532715 3.76390076 C-3.63054616 0.18116157 -3.59127731 0.15190976 0 0 Z " fill="#237BDD" transform="translate(555.683837890625,117.886474609375)"/>
<path d="M0 0 C1.25031761 0.00424484 1.25031761 0.00424484 2.52589417 0.00857544 C5.16454985 0.01968961 7.80285473 0.04477735 10.44140625 0.0703125 C12.24022944 0.08035365 14.039058 0.08947751 15.83789062 0.09765625 C20.2266958 0.11960015 24.61524173 0.15406863 29.00390625 0.1953125 C27.38266954 5.05902264 23.48492005 7.8118371 19.62890625 11.0078125 C16.45964752 13.68949296 13.84668086 16.61548494 11.16796875 19.77734375 C7.78667079 23.5553644 4.15805035 27.08253932 0.53466797 30.62719727 C-1.74742193 32.87429829 -3.85471756 35.00389165 -5.76171875 37.5859375 C-6.1690625 38.11703125 -6.57640625 38.648125 -6.99609375 39.1953125 C-7.65609375 39.1953125 -8.31609375 39.1953125 -8.99609375 39.1953125 C-9.01671875 40.4946875 -9.03734375 41.7940625 -9.05859375 43.1328125 C-9.07019531 43.86371094 -9.08179688 44.59460938 -9.09375 45.34765625 C-9.20170559 47.21263391 -9.20170559 47.21263391 -7.99609375 48.1953125 C-6.29453125 48.164375 -6.29453125 48.164375 -4.55859375 48.1328125 C-0.99609375 48.1953125 -0.99609375 48.1953125 1.00390625 50.1953125 C1.24682617 52.60961914 1.24682617 52.60961914 1.234375 55.60546875 C1.23244141 56.67732422 1.23050781 57.74917969 1.22851562 58.85351562 C1.21014648 60.53864258 1.21014648 60.53864258 1.19140625 62.2578125 C1.19076172 63.38509766 1.19011719 64.51238281 1.18945312 65.67382812 C1.14403942 74.05517933 1.14403942 74.05517933 0.00390625 75.1953125 C-3.29609375 75.1953125 -6.59609375 75.1953125 -9.99609375 75.1953125 C-9.99609375 84.4353125 -9.99609375 93.6753125 -9.99609375 103.1953125 C-19.56609375 103.1953125 -29.13609375 103.1953125 -38.99609375 103.1953125 C-39.08676383 93.85001688 -39.16002147 84.50501739 -39.20334244 75.15937996 C-39.2241431 70.81897657 -39.25232155 66.47889189 -39.29785156 62.13867188 C-39.34157996 57.94354023 -39.36528731 53.74871354 -39.37560272 49.55337143 C-39.382946 47.95950399 -39.39728482 46.36565167 -39.41901398 44.77191544 C-39.53519965 35.89024234 -39.31446241 28.22129556 -34.99609375 20.1953125 C-34.526875 19.29296875 -34.05765625 18.390625 -33.57421875 17.4609375 C-30.08288469 12.16232464 -26.31591196 8.63102843 -20.99609375 5.1953125 C-20.15046875 4.6178125 -19.30484375 4.0403125 -18.43359375 3.4453125 C-12.33916203 0.3199629 -6.71538707 -0.08718686 0 0 Z " fill="#267DDE" transform="translate(662.99609375,116.8046875)"/>
<path d="M0 0 C11.55 0 23.1 0 35 0 C35 24.42 35 48.84 35 74 C25.43 74 15.86 74 6 74 C6 58.82 6 43.64 6 28 C4.02 28 2.04 28 0 28 C0 18.76 0 9.52 0 0 Z " fill="#257CDE" transform="translate(585,146)"/>
<path d="M0 0 C5.19037987 3.46025324 9.56301406 6.61888224 11.625 12.75 C12.64250465 19.5993137 12.35057945 25.37474178 8.19140625 31.0625 C4.41974675 35.12573417 0.07844977 38.37582516 -5.57421875 38.98828125 C-12.48387364 39.19437771 -17.73552812 38.13017109 -22.91015625 33.32421875 C-27.42206505 28.23352281 -28.81613815 23.73973143 -28.6171875 17.0859375 C-28.01701914 11.29721691 -26.32681001 7.26509664 -21.9375 3.375 C-15.29807063 -1.94248482 -8.07484898 -2.99068481 0 0 Z " fill="#377FD7" transform="translate(253.375,14.25)"/>
<path d="M0 0 C4.29239384 3.36055777 6.96706908 6.52546615 8 12 C8.70821827 19.20390774 8.32444171 25.01667409 4 31 C-0.55147065 35.67790039 -6.17139674 37.70225229 -12.5625 38.375 C-16.55658996 37.9392811 -19.4138953 36.79305235 -23 35 C-24.3303125 34.38125 -24.3303125 34.38125 -25.6875 33.75 C-29.38454277 30.9522379 -31.12214796 27.34093878 -32.75 23 C-33.55655347 16.54757227 -33.07175888 10.77734782 -30 5 C-22.25091879 -3.99027603 -10.46795496 -6.03920478 0 0 Z M-17 5 C-17 7.64 -17 10.28 -17 13 C-19.64 13 -22.28 13 -25 13 C-25 15.97 -25 18.94 -25 22 C-22.36 22 -19.72 22 -17 22 C-17 24.64 -17 27.28 -17 30 C-14.03 30 -11.06 30 -8 30 C-8 27.36 -8 24.72 -8 22 C-5.36 22 -2.72 22 0 22 C0 19.03 0 16.06 0 13 C-2.64 13 -5.28 13 -8 13 C-8 10.36 -8 7.72 -8 5 C-10.97 5 -13.94 5 -17 5 Z " fill="#21BF57" transform="translate(617,104)"/>
<path d="M0 0 C3.06066119 1.5796961 4.26408757 4.07152824 5.9375 7 C5.9375 7.66 5.9375 8.32 5.9375 9 C-1.57019231 9.36923077 -1.57019231 9.36923077 -4.0625 7.5 C-4.5575 6.7575 -4.5575 6.7575 -5.0625 6 C-5.3925 6.99 -5.7225 7.98 -6.0625 9 C-7.0525 9 -8.0425 9 -9.0625 9 C-9.0625 18.57 -9.0625 28.14 -9.0625 38 C-13.39583333 38 -17.72916667 38 -22.0625 38 C-22.73925781 38.05800781 -23.41601562 38.11601562 -24.11328125 38.17578125 C-28.25360807 38.42606007 -31.15496391 38.44898165 -34.5 35.8125 C-38.54352676 31.37448282 -39.4877858 28.04759827 -39.31640625 21.9921875 C-38.80920633 18.01261887 -37.20270165 15.07178955 -34.3046875 12.34765625 C-31.49394678 10.65827376 -29.69371979 10.66223127 -26.4375 10.75 C-25.47585938 10.76546875 -24.51421875 10.7809375 -23.5234375 10.796875 C-21.0625 11 -21.0625 11 -19.0625 12 C-19.0625 11.01 -19.0625 10.02 -19.0625 9 C-20.3825 9 -21.7025 9 -23.0625 9 C-23.0625 7.35 -23.0625 5.7 -23.0625 4 C-21.7425 4 -20.4225 4 -19.0625 4 C-19.0625 3.01 -19.0625 2.02 -19.0625 1 C-15.7625 1 -12.4625 1 -9.0625 1 C-9.0625 1.99 -9.0625 2.98 -9.0625 4 C-8.4025 4 -7.7425 4 -7.0625 4 C-7.0625 3.34 -7.0625 2.68 -7.0625 2 C-4.63870326 0.85542932 -2.70267887 0 0 0 Z M-27.8125 19.0625 C-29.73570562 22.0434687 -29.37641972 24.54688306 -29.0625 28 C-27.17749729 30.31563087 -27.17749729 30.31563087 -24.0625 30.25 C-20.94750271 30.31563087 -20.94750271 30.31563087 -19.0625 28 C-18.56893733 23.29517588 -18.56893733 23.29517588 -20.3125 19.0625 C-22.95673243 17.45707317 -25.16826757 17.45707317 -27.8125 19.0625 Z " fill="#181818" transform="translate(789.0625,233)"/>
<path d="M0 0 C3.71106931 2.64056855 6.2127273 5.2379546 8.25 9.3125 C8.79360446 14.26732094 8.81437074 18.18375852 6.5625 22.6875 C2.28902835 27.53846781 -0.93409342 30.12477289 -7.5 30.5625 C-11.86049712 30.46648905 -14.96066547 29.60040009 -18.75 27.3125 C-22.39179999 23.47757426 -24.07426198 19.58760744 -24.375 14.3125 C-24.07426198 9.03739256 -22.39179999 5.14742574 -18.75 1.3125 C-12.70231938 -2.33892981 -6.35340205 -3.33960877 0 0 Z " fill="#3A82D8" transform="translate(363.75,46.6875)"/>
<path d="M0 0 C0.9583374 0.00523682 1.9166748 0.01047363 2.90405273 0.01586914 C4.45576172 0.02070313 4.45576172 0.02070313 6.03881836 0.02563477 C7.12743164 0.03401367 8.21604492 0.04239258 9.33764648 0.05102539 C10.97636719 0.05779297 10.97636719 0.05779297 12.64819336 0.06469727 C15.35723144 0.07652713 18.06616248 0.09300996 20.77514648 0.11352539 C20.86257449 4.32172684 20.91568289 8.52969315 20.96264648 12.73852539 C20.9877832 13.92833008 21.01291992 15.11813477 21.03881836 16.34399414 C21.10199222 23.88274202 20.91827153 28.78192371 15.56030273 34.46118164 C11.93470586 36.61213182 9.40566209 36.61348342 5.21264648 36.55102539 C3.26165039 36.5490918 3.26165039 36.5490918 1.27124023 36.54711914 C-2.27704236 36.10705281 -3.68787979 35.54721265 -6.22485352 33.11352539 C-5.23485352 29.64852539 -5.23485352 29.64852539 -4.22485352 26.11352539 C-3.35860352 26.44352539 -2.49235352 26.77352539 -1.59985352 27.11352539 C2.36798328 28.28918074 5.9655901 29.01830358 9.77514648 27.11352539 C10.10514648 26.12352539 10.43514648 25.13352539 10.77514648 24.11352539 C10.11514648 24.44352539 9.45514648 24.77352539 8.77514648 25.11352539 C3.56843588 25.75860458 -0.04195186 26.03087769 -4.28735352 22.73852539 C-7.97010797 17.74898709 -7.87570462 13.19384489 -7.22485352 7.11352539 C-5.7830843 3.71881423 -3.88521748 0.19824713 0 0 Z M1.90014648 8.80102539 C0.4739026 11.73274893 0.73284259 13.06679093 1.77514648 16.11352539 C2.43514648 16.77352539 3.09514648 17.43352539 3.77514648 18.11352539 C7.60079314 17.92595477 7.60079314 17.92595477 10.77514648 16.11352539 C11.02518613 12.65531137 11.02518613 12.65531137 10.77514648 9.11352539 C8.95042757 6.89456403 8.95042757 6.89456403 6.33764648 6.73852539 C3.67998132 6.88565592 3.67998132 6.88565592 1.90014648 8.80102539 Z " fill="#222222" transform="translate(671.224853515625,243.886474609375)"/>
<path d="M0 0 C3.3 0 6.6 0 10 0 C10 4.62 10 9.24 10 14 C14.29 14 18.58 14 23 14 C23 9.38 23 4.76 23 0 C25.97 0 28.94 0 32 0 C32 11.55 32 23.1 32 35 C29.03 35 26.06 35 23 35 C23 30.71 23 26.42 23 22 C18.71 22 14.42 22 10 22 C10 26.29 10 30.58 10 35 C6.7 35 3.4 35 0 35 C0 23.45 0 11.9 0 0 Z " fill="#1C1C1C" transform="translate(255,236)"/>
<path d="M0 0 C0.9796875 0.02320313 1.959375 0.04640625 2.96875 0.0703125 C3.9484375 0.08835938 4.928125 0.10640625 5.9375 0.125 C7.19046875 0.15980469 7.19046875 0.15980469 8.46875 0.1953125 C9.12875 0.1953125 9.78875 0.1953125 10.46875 0.1953125 C13.46875 0.1953125 16.46875 0.1953125 19.46875 0.1953125 C19.58522041 4.73676244 19.65609502 9.27782644 19.71875 13.8203125 C19.75226563 15.10550781 19.78578125 16.39070313 19.8203125 17.71484375 C19.9435559 29.60783163 19.9435559 29.60783163 15.46875 34.1953125 C11.71590915 36.6972064 9.57068043 36.49461919 5.09375 36.5078125 C3.78664063 36.52457031 2.47953125 36.54132813 1.1328125 36.55859375 C-2.63337781 36.18518682 -4.51352216 35.40326395 -7.53125 33.1953125 C-6.04625 29.7303125 -6.04625 29.7303125 -4.53125 26.1953125 C-3.2628125 26.72125 -3.2628125 26.72125 -1.96875 27.2578125 C1.91892533 28.31808759 4.55300639 27.97846122 8.46875 27.1953125 C8.79875 26.2053125 9.12875 25.2153125 9.46875 24.1953125 C8.80875 24.5253125 8.14875 24.8553125 7.46875 25.1953125 C2.929531 25.73930535 -0.4856769 25.81820711 -4.46875 23.4453125 C-8.26118579 19.30810982 -8.96797984 15.94281344 -8.859375 10.44921875 C-8.18492112 5.8163629 -4.89742127 0.37788744 0 0 Z M0.46875 9.1953125 C0.05208333 12.6953125 0.05208333 12.6953125 0.46875 16.1953125 C3.22770635 18.49169029 3.22770635 18.49169029 6.03125 17.9453125 C8.61875567 17.35723198 8.61875567 17.35723198 10.46875 15.1953125 C10.83362512 12.34928656 10.87074375 10.8088819 9.28125 8.3828125 C5.91002545 6.17407918 3.27580441 6.38825809 0.46875 9.1953125 Z " fill="#1F1F1F" transform="translate(455.53125,243.8046875)"/>
<path d="M0 0 C2.97 0 5.94 0 9 0 C9.33 3.63 9.66 7.26 10 11 C10.66 10.67 11.32 10.34 12 10 C13.78633815 9.8270371 15.58088959 9.7331945 17.375 9.6875 C18.33148438 9.65011719 19.28796875 9.61273438 20.2734375 9.57421875 C23.81085617 10.12662367 24.7819466 11.23371297 27 14 C27.45410156 16.56542969 27.45410156 16.56542969 27.390625 19.421875 C27.37128906 20.95908203 27.37128906 20.95908203 27.3515625 22.52734375 C27.31804687 23.59082031 27.28453125 24.65429688 27.25 25.75 C27.23195313 26.82894531 27.21390625 27.90789062 27.1953125 29.01953125 C27.14821415 31.68058788 27.082456 34.33984254 27 37 C24.03 37 21.06 37 18 37 C17.67 31.39 17.34 25.78 17 20 C12.52297636 18.93462795 12.52297636 18.93462795 10 19 C9.67 24.94 9.34 30.88 9 37 C6.03 37 3.06 37 0 37 C0 24.79 0 12.58 0 0 Z " fill="#191919" transform="translate(354,234)"/>
<path d="M0 0 C2.97 0 5.94 0 9 0 C9.33 3.63 9.66 7.26 10 11 C10.33 10.67 10.66 10.34 11 10 C13.58203125 9.7265625 13.58203125 9.7265625 16.8125 9.625 C17.87082031 9.57601562 18.92914062 9.52703125 20.01953125 9.4765625 C23 10 23 10 25.37109375 11.81640625 C27.81793402 16.59860006 27.42581277 21.02797372 27.25 26.3125 C27.23195313 27.33923828 27.21390625 28.36597656 27.1953125 29.42382812 C27.14831063 31.95017885 27.08262272 34.47460469 27 37 C24.03 37 21.06 37 18 37 C17.67 31.39 17.34 25.78 17 20 C12.52297636 18.93462795 12.52297636 18.93462795 10 19 C9.67 24.94 9.34 30.88 9 37 C6.03 37 3.06 37 0 37 C0 24.79 0 12.58 0 0 Z " fill="#1A1A1A" transform="translate(834,234)"/>
<path d="M0 0 C2.97 0 5.94 0 9 0 C9.33 3.63 9.66 7.26 10 11 C10.66 10.67 11.32 10.34 12 10 C13.80843663 9.85283458 15.62331566 9.7789113 17.4375 9.75 C18.88962891 9.71132812 18.88962891 9.71132812 20.37109375 9.671875 C23 10 23 10 24.78515625 11.390625 C27.0394326 14.37699753 27.11885364 16.31946688 27.09765625 20.0078125 C27.09443359 20.99394531 27.09121094 21.98007813 27.08789062 22.99609375 C27.07951172 24.02863281 27.07113281 25.06117188 27.0625 26.125 C27.05798828 27.16527344 27.05347656 28.20554687 27.04882812 29.27734375 C27.03701952 31.85161962 27.02055075 34.42578146 27 37 C24.03 37 21.06 37 18 37 C17.67 31.39 17.34 25.78 17 20 C12.52297636 18.93462795 12.52297636 18.93462795 10 19 C9.67 24.94 9.34 30.88 9 37 C6.03 37 3.06 37 0 37 C0 24.79 0 12.58 0 0 Z " fill="#1A1A1A" transform="translate(562,234)"/>
<path d="M0 0 C2.97 0 5.94 0 9 0 C9.33 5.28 9.66 10.56 10 16 C11.1446875 14.515 11.1446875 14.515 12.3125 13 C14.53917831 10.71430131 15.64396034 10.04981625 18.84765625 9.6015625 C21.58686506 9.62276928 24.27380195 9.73805214 27 10 C26.59007812 10.45890625 26.18015625 10.9178125 25.7578125 11.390625 C25.21898437 12.00421875 24.68015625 12.6178125 24.125 13.25 C23.59132813 13.85328125 23.05765625 14.4565625 22.5078125 15.078125 C20.99076872 17.0117663 19.87551552 18.70235081 19 21 C20.70956413 25.42475423 23.41460548 29.31249684 26.01171875 33.265625 C27 35 27 35 27 37 C23.37 37 19.74 37 16 37 C12 30.25 12 30.25 12 28 C11.34 28.33 10.68 28.66 10 29 C9.53476937 30.89533342 9.53476937 30.89533342 9.375 33.0625 C9.25125 34.361875 9.1275 35.66125 9 37 C6.03 37 3.06 37 0 37 C0 24.79 0 12.58 0 0 Z " fill="#1D1D1D" transform="translate(532,234)"/>
<path d="M0 0 C1.06734375 -0.03673828 1.06734375 -0.03673828 2.15625 -0.07421875 C5.64881626 -0.0937667 7.61341002 0.08381844 10.4375 2.2109375 C12.81178596 5.49932355 13.12274649 8.10380136 13.09765625 12.04296875 C13.09443359 12.93564453 13.09121094 13.82832031 13.08789062 14.74804688 C13.07951172 15.67681641 13.07113281 16.60558594 13.0625 17.5625 C13.05798828 18.50287109 13.05347656 19.44324219 13.04882812 20.41210938 C13.03704626 22.73313712 13.02059558 25.05403644 13 27.375 C9.41694008 27.49127503 5.83436583 27.5622736 2.25 27.625 C1.23421875 27.65851563 0.2184375 27.69203125 -0.828125 27.7265625 C-8.33954798 27.82539701 -8.33954798 27.82539701 -11.640625 25.57421875 C-13.59428538 22.41355554 -14 20.08346273 -14 16.375 C-12.23358828 13.57310554 -10.96950178 11.85975089 -8 10.375 C-6.12620395 10.30466231 -4.24998898 10.2906978 -2.375 10.3125 C-0.87066406 10.32603516 -0.87066406 10.32603516 0.6640625 10.33984375 C1.43492187 10.35144531 2.20578125 10.36304688 3 10.375 C2.67 9.715 2.34 9.055 2 8.375 C-2.16138263 8.29340426 -5.9472484 8.39251476 -10 9.375 C-10.66 7.065 -11.32 4.755 -12 2.375 C-8.22077386 -0.08543369 -4.35956434 0.00789776 0 0 Z M-4 16.375 C-4 17.695 -4 19.015 -4 20.375 C-0.535 19.88 -0.535 19.88 3 19.375 C3 18.385 3 17.395 3 16.375 C0.69 16.375 -1.62 16.375 -4 16.375 Z " fill="#282828" transform="translate(637,243.625)"/>
<path d="M0 0 C4 0 8 0 12 0 C12.88429688 -0.05800781 13.76859375 -0.11601562 14.6796875 -0.17578125 C16.26136719 -0.24345703 16.26136719 -0.24345703 17.875 -0.3125 C19.44894531 -0.39951172 19.44894531 -0.39951172 21.0546875 -0.48828125 C24 0 24 0 26.3671875 1.8125 C28.81800515 6.5968713 28.42593145 11.02440673 28.25 16.3125 C28.23195313 17.33923828 28.21390625 18.36597656 28.1953125 19.42382812 C28.14831063 21.95017885 28.08262272 24.47460469 28 27 C25.03 27 22.06 27 19 27 C18.93941406 25.86820312 18.87882812 24.73640625 18.81640625 23.5703125 C18.73200083 22.08852855 18.64735283 20.6067584 18.5625 19.125 C18.52318359 18.37863281 18.48386719 17.63226563 18.44335938 16.86328125 C18.28426376 12.80013136 18.28426376 12.80013136 17 9 C15.02 9.33 13.04 9.66 11 10 C10.67 15.61 10.34 21.22 10 27 C6.7 27 3.4 27 0 27 C0 18.09 0 9.18 0 0 Z " fill="#222222" transform="translate(416,244)"/>
<path d="M0 0 C3.3 0 6.6 0 10 0 C11.65 4.29 13.3 8.58 15 13 C16.90389849 10.14415227 17.69462177 8.0688238 18.625 4.8125 C18.88539063 3.91144531 19.14578125 3.01039063 19.4140625 2.08203125 C19.60742188 1.39496094 19.80078125 0.70789063 20 0 C23.3 0 26.6 0 30 0 C27.07340778 8.47881506 24.10793808 16.94483385 20.875 25.3125 C20.41867187 26.50488281 19.96234375 27.69726562 19.4921875 28.92578125 C17.95599415 32.09066126 16.84261636 33.93355903 14 36 C11.0546875 36.42578125 11.0546875 36.42578125 7.875 36.3125 C6.29332031 36.27576172 6.29332031 36.27576172 4.6796875 36.23828125 C2 36 2 36 0 35 C0.54723683 31.62537285 1.0549 29.91765 3 27 C6.125 26.8125 6.125 26.8125 9 27 C7.86236431 19.92137794 5.35583855 13.88397307 2.38842773 7.41015625 C0 2.17938006 0 2.17938006 0 0 Z " fill="#242424" transform="translate(488,244)"/>
<path d="M0 0 C1.30710937 -0.04898438 2.61421875 -0.09796875 3.9609375 -0.1484375 C7.625 0.375 7.625 0.375 10.58203125 2.19140625 C13.62849607 6.93876538 13.1666609 11.17706166 12.9375 16.6875 C12.91494141 17.71423828 12.89238281 18.74097656 12.86914062 19.79882812 C12.81037575 22.3257179 12.72827849 24.84960255 12.625 27.375 C8.625 27.375 4.625 27.375 0.625 27.375 C-0.42494141 27.44460938 -0.42494141 27.44460938 -1.49609375 27.515625 C-7.68261994 27.80773754 -7.68261994 27.80773754 -10.875 25.8125 C-12.87633412 22.56033206 -13.30811096 20.18767501 -13.375 16.375 C-12.296875 13.734375 -12.296875 13.734375 -10.375 11.375 C-7.23828125 10.44921875 -7.23828125 10.44921875 -3.6875 10.0625 C-1.91826172 9.85173828 -1.91826172 9.85173828 -0.11328125 9.63671875 C0.79035156 9.55035156 1.69398438 9.46398437 2.625 9.375 C1.4698749 7.99322838 1.4698749 7.99322838 -1.6875 8.25 C-4.52148763 8.34606738 -6.71095099 8.52250432 -9.375 9.375 C-10.74241555 7.12278616 -11.41566478 5.84942242 -11.1875 3.1875 C-10.919375 2.589375 -10.65125 1.99125 -10.375 1.375 C-6.8017532 0.18391773 -3.76663059 0.09620078 0 0 Z M-3.375 16.375 C-3.375 17.695 -3.375 19.015 -3.375 20.375 C-1.725 20.375 -0.075 20.375 1.625 20.375 C2.285 19.055 2.945 17.735 3.625 16.375 C1.315 16.375 -0.995 16.375 -3.375 16.375 Z " fill="#242424" transform="translate(723.375,243.625)"/>
<path d="M0 0 C3.41558625 1.55142428 5.12141213 3.84186144 7.375 6.8125 C8.81154243 11.84039849 8.7240929 16.20411195 6.3125 20.8125 C2.8280543 25.61538462 2.8280543 25.61538462 -1 27 C-7.18683218 27.67165915 -12.78858427 27.77827641 -18 24 C-21.15562815 20.19148326 -22.1488972 15.89499548 -22 11 C-18.55843214 -0.47189285 -10.8321982 -1.48577631 0 0 Z M-10.75 8.0625 C-12.691404 11.0716762 -12.37970868 13.51933713 -12 17 C-8.77856724 19.14762184 -7.7404533 19.561068 -4 19 C-1.97103788 17.46186579 -1.97103788 17.46186579 -1 15 C-0.99325074 11.87319901 -0.99325074 11.87319901 -2 9 C-5.18564068 6.87623954 -7.25245028 5.93898767 -10.75 8.0625 Z " fill="#202020" transform="translate(614,244)"/>
<path d="M0 0 C3.66666667 0 7.33333333 0 11 0 C11.88429688 -0.05800781 12.76859375 -0.11601562 13.6796875 -0.17578125 C15.26136719 -0.24345703 15.26136719 -0.24345703 16.875 -0.3125 C18.44894531 -0.39951172 18.44894531 -0.39951172 20.0546875 -0.48828125 C23 0 23 0 25.3671875 1.8125 C27.81800515 6.5968713 27.42593145 11.02440673 27.25 16.3125 C27.23195313 17.33923828 27.21390625 18.36597656 27.1953125 19.42382812 C27.14831063 21.95017885 27.08262272 24.47460469 27 27 C24.03 27 21.06 27 18 27 C17.93941406 25.78441406 17.87882813 24.56882812 17.81640625 23.31640625 C17.73201668 21.73175772 17.6473679 20.14712298 17.5625 18.5625 C17.52318359 17.76005859 17.48386719 16.95761719 17.44335938 16.13085938 C17.5945704 12.24760439 17.5945704 12.24760439 16 9 C14.33382885 8.95936168 12.66611905 8.957279 11 9 C9.414131 12.171738 9.62133555 15.63513822 9.4375 19.125 C9.39431641 19.87910156 9.35113281 20.63320313 9.30664062 21.41015625 C9.2005168 23.27321888 9.09974999 25.13658524 9 27 C6.03 27 3.06 27 0 27 C0 18.09 0 9.18 0 0 Z " fill="#181818" transform="translate(801,244)"/>
<path d="M0 0 C2.54420653 2.17005851 3.81761575 3.71606362 5.125 6.8125 C5.125 9.4525 5.125 12.0925 5.125 14.8125 C-0.485 14.8125 -6.095 14.8125 -11.875 14.8125 C-11.215 16.1325 -10.555 17.4525 -9.875 18.8125 C-4.9775901 20.06085939 -0.80964265 19.71886294 4.125 18.8125 C4.3125 21.6875 4.3125 21.6875 4.125 24.8125 C-0.77202379 28.07718253 -6.15350159 27.35438853 -11.875 26.8125 C-15.5534615 25.35379975 -17.04985997 24.29656481 -18.9609375 20.859375 C-21.28065438 15.18895595 -21.13775413 10.48036958 -18.875 4.8125 C-14.48869279 -1.97920148 -7.32317275 -3.02478874 0 0 Z M-10.875 5.8125 C-10.875 6.8025 -10.875 7.7925 -10.875 8.8125 C-8.235 8.8125 -5.595 8.8125 -2.875 8.8125 C-3.535 7.4925 -4.195 6.1725 -4.875 4.8125 C-8.6513932 4.5143576 -8.6513932 4.5143576 -10.875 5.8125 Z " fill="#252525" transform="translate(311.875,244.1875)"/>
<path d="M0 0 C3.63597812 4.71694459 4.69212947 8.5463931 4.46484375 14.4921875 C3.7004192 18.61622583 1.71930966 21.84395273 -1 25 C-5.18818726 27.09409363 -10.43791571 26.41473494 -15 26 C-19.02002607 24.11304899 -20.30995613 21.79094057 -21.9375 17.8125 C-23.38576064 12.81764655 -22.9081025 8.80283361 -21 4 C-19.29761293 1.27618069 -18.1735937 -0.45511721 -15.25 -1.8125 C-4.26923077 -2.7275641 -4.26923077 -2.7275641 0 0 Z M-12 5 C-13.99825961 7.99738941 -14.27550398 8.63347508 -14.25 12 C-14.25515625 12.680625 -14.2603125 13.36125 -14.265625 14.0625 C-14.09917603 16.32416007 -14.09917603 16.32416007 -12 19 C-9.54290625 19.58350505 -9.54290625 19.58350505 -7 19 C-4.49092692 16.75048621 -4.04343691 15.34749528 -3.625 12 C-4.04343691 8.65250472 -4.49092692 7.24951379 -7 5 C-9.54290625 4.41649495 -9.54290625 4.41649495 -12 5 Z " fill="#262626" transform="translate(408,245)"/>
<path d="M0 0 C2.97 0 5.94 0 9 0 C9 2.31 9 4.62 9 7 C11.31 7 13.62 7 16 7 C16 8.98 16 10.96 16 13 C13.69 13 11.38 13 9 13 C9.33 16.63 9.66 20.26 10 24 C11.65 24 13.3 24 15 24 C15.66 26.31 16.32 28.62 17 31 C13.8362103 33.10919313 12.73502395 33.34361593 9.0625 33.4375 C7.78052734 33.49744141 7.78052734 33.49744141 6.47265625 33.55859375 C4 33 4 33 1.69921875 30.9609375 C-0.41042232 27.28482732 -0.45440757 24.29530591 -0.25 20.1875 C-0.23195313 19.49462891 -0.21390625 18.80175781 -0.1953125 18.08789062 C-0.14851064 16.39132336 -0.07677624 14.69547524 0 13 C-1.32 13 -2.64 13 -4 13 C-4 11.02 -4 9.04 -4 7 C-2.68 7 -1.36 7 0 7 C0 4.69 0 2.38 0 0 Z " fill="#1A1A1A" transform="translate(334,238)"/>
<path d="M0 0 C2.9375 1.4375 2.9375 1.4375 5 4 C6.29252053 8.30304973 6.50440653 11.75225754 4.8125 15.9375 C2.06833187 19.06017407 0.23225227 19.83927144 -3.875 20.375 C-7.82171864 19.90139376 -9.90995187 18.44329387 -13 16 C-14.75290038 12.49419924 -14.67770616 8.81620942 -14 5 C-9.7878373 -0.15989931 -6.5097924 -0.92997034 0 0 Z " fill="#4589DA" transform="translate(297,117)"/>
<path d="M0 0 C3.3 0 6.6 0 10 0 C10 8.91 10 17.82 10 27 C6.7 27 3.4 27 0 27 C0 18.09 0 9.18 0 0 Z " fill="#323232" transform="translate(785,244)"/>
<path d="M0 0 C2.97 0 5.94 0 9 0 C9 8.91 9 17.82 9 27 C6.03 27 3.06 27 0 27 C0 18.09 0 9.18 0 0 Z " fill="#1C1C1C" transform="translate(697,244)"/>
<path d="M0 0 C2.31 0 4.62 0 7 0 C5.49776416 4.20626034 2.71449966 5.73900021 -1 8 C-0.67 8.99 -0.34 9.98 0 11 C-3.94727588 11.17942163 -6.5980513 11.09350689 -10 9 C-10.99 9.66 -11.98 10.32 -13 11 C-16.1875 11.125 -16.1875 11.125 -19 11 C-18.37224433 9.64791086 -17.69580267 8.31836295 -17 7 C-16.649375 6.2575 -16.29875 5.515 -15.9375 4.75 C-13.09675262 2.18416366 -10.56463879 2.69408312 -6.86328125 2.859375 C-5.94095703 2.92898437 -5.94095703 2.92898437 -5 3 C-5 3.66 -5 4.32 -5 5 C-1.88667752 4.33131686 -1.88667752 4.33131686 -0.8125 1.9375 C-0.544375 1.298125 -0.27625 0.65875 0 0 Z " fill="#3E3E3E" transform="translate(408,230)"/>
<path d="M0 0 C3.06066119 1.5796961 4.26408757 4.07152824 5.9375 7 C5.9375 7.66 5.9375 8.32 5.9375 9 C-1.57019231 9.36923077 -1.57019231 9.36923077 -4.0625 7.5 C-4.3925 7.005 -4.7225 6.51 -5.0625 6 C-5.3925 6.99 -5.7225 7.98 -6.0625 9 C-7.0525 9 -8.0425 9 -9.0625 9 C-9.0625 18.57 -9.0625 28.14 -9.0625 38 C-12.3625 38 -15.6625 38 -19.0625 38 C-19.5575 36.515 -19.5575 36.515 -20.0625 35 C-19.0725 34.505 -19.0725 34.505 -18.0625 34 C-18.0625 34.99 -18.0625 35.98 -18.0625 37 C-15.4225 37 -12.7825 37 -10.0625 37 C-10.0625 27.43 -10.0625 17.86 -10.0625 8 C-9.0725 8 -8.0825 8 -7.0625 8 C-7.0625 6.02 -7.0625 4.04 -7.0625 2 C-4.63870326 0.85542932 -2.70267887 0 0 0 Z " fill="#767676" transform="translate(789.0625,233)"/>
<path d="M0 0 C1.88644674 2.37856329 2.0337486 3.53876916 1.8125 6.5625 C0.92956325 9.21131025 0.32487657 10.45008229 -2 12 C-4.1875 11.6875 -4.1875 11.6875 -6 11 C-5.34 11 -4.68 11 -4 11 C-4 10.34 -4 9.68 -4 9 C-5.65 9 -7.3 9 -9 9 C-9.33 9.99 -9.66 10.98 -10 12 C-12.46324069 8.30513897 -12.38991688 6.36706908 -12 2 C-8.68413678 -2.73694745 -4.87937331 -2.18014552 0 0 Z M-7 3 C-7 4.32 -7 5.64 -7 7 C-5.68 6.67 -4.36 6.34 -3 6 C-3.33 5.01 -3.66 4.02 -4 3 C-4.99 3 -5.98 3 -7 3 Z " fill="#6CD47F" transform="translate(728,179)"/>
<path d="M0 0 C2.98090365 0.21118119 4.8147464 0.43132147 7.2578125 2.171875 C9.09574196 4.29337072 10.4375 5.99671242 10.4375 8.875 C5.88944365 9.05335515 2.5580746 8.87285435 -1.5625 6.875 C-2.2225 7.535 -2.8825 8.195 -3.5625 8.875 C-6.25089385 9.14491906 -8.85391936 8.96237357 -11.5625 8.875 C-8.70124726 3.46638723 -6.40422426 0.29424814 0 0 Z " fill="#363636" transform="translate(304.5625,232.125)"/>
<path d="M0 0 C0.69351563 0.00064453 1.38703125 0.00128906 2.1015625 0.00195312 C7.23456743 0.04706743 7.23456743 0.04706743 8.375 1.1875 C8.46283542 3.40605264 8.48194609 5.62738496 8.47265625 7.84765625 C8.4712413 8.51212265 8.46982635 9.17658905 8.46836853 9.8611908 C8.46275518 11.99083899 8.45020054 14.12038339 8.4375 16.25 C8.43248671 17.69075369 8.42792351 19.13150903 8.42382812 20.57226562 C8.41278145 24.11071102 8.39550792 27.64909539 8.375 31.1875 C4.085 30.8575 -0.205 30.5275 -4.625 30.1875 C-4.625 29.8575 -4.625 29.5275 -4.625 29.1875 C-0.995 29.1875 2.635 29.1875 6.375 29.1875 C6.375 19.9475 6.375 10.7075 6.375 1.1875 C-2.04 1.6825 -2.04 1.6825 -10.625 2.1875 C-6.96606495 -0.25179003 -4.22221667 -0.07539673 0 0 Z " fill="#91BDEE" transform="translate(541.625,143.8125)"/>
<path d="M0 0 C2.5 0.25 2.5 0.25 4.5 2.25 C4.75 5.25 4.75 5.25 4.5 8.25 C3.84 8.91 3.18 9.57 2.5 10.25 C-3.06818182 9.68181818 -3.06818182 9.68181818 -4.5 8.25 C-4.6875 5.3125 -4.6875 5.3125 -4.5 2.25 C-2.5 0.25 -2.5 0.25 0 0 Z " fill="#363636" transform="translate(701.5,231.75)"/>
<path d="M0 0 C3.0625 0.1875 3.0625 0.1875 5.0625 2.1875 C4.6875 4.8125 4.6875 4.8125 4.0625 7.1875 C-1.6875 8.3125 -1.6875 8.3125 -3.9375 7.1875 C-3.98004356 5.18795254 -3.97830783 3.18708364 -3.9375 1.1875 C-2.9375 0.1875 -2.9375 0.1875 0 0 Z " fill="#3E3E3E" transform="translate(303.9375,272.8125)"/>
<path d="M0 0 C2.41049138 1.08922007 3.95375076 2.27684275 6 4 C5.67 4.66 5.34 5.32 5 6 C3.68 5.34 2.36 4.68 1 4 C1 3.34 1 2.68 1 2 C-6.30252464 1.70810557 -6.30252464 1.70810557 -12.734375 4.40234375 C-13.83746174 5.9244602 -14.91981114 7.4615492 -16 9 C-18.8125 9.375 -18.8125 9.375 -21 9 C-20.67 8.34 -20.34 7.68 -20 7 C-19.34 7 -18.68 7 -18 7 C-16.31183067 5.35511706 -14.64646685 3.68662458 -13 2 C-8.7583342 -0.8277772 -4.98284464 -0.66437928 0 0 Z " fill="#A9E6B4" transform="translate(725,151)"/>
<path d="M0 0 C2.31 0 4.62 0 7 0 C5.60440273 3.3726934 4.1078412 5.08045102 1 7 C-1.25 7.6875 -1.25 7.6875 -3 8 C-3.33 7.01 -3.66 6.02 -4 5 C-3.34 4.67 -2.68 4.34 -2 4 C-0.86649466 1.98330173 -0.86649466 1.98330173 0 0 Z " fill="#696969" transform="translate(408,230)"/>
<path d="M0 0 C0.66 0 1.32 0 2 0 C0.46356148 3.68069887 -1.78150945 5.98775204 -4.625 8.75 C-5.85089844 9.94882813 -5.85089844 9.94882813 -7.1015625 11.171875 C-7.72804687 11.77515625 -8.35453125 12.3784375 -9 13 C-9 9.26130751 -8.09514308 8.63449295 -5.625 5.9375 C-4.99851563 5.24527344 -4.37203125 4.55304688 -3.7265625 3.83984375 C-2.50602933 2.53923035 -1.26120903 1.26120903 0 0 Z " fill="#80B3EC" transform="translate(228,70)"/>
<path d="M0 0 C0.8971875 0.309375 0.8971875 0.309375 1.8125 0.625 C1.131875 0.975625 0.45125 1.32625 -0.25 1.6875 C-4.071158 4.20783826 -7.04469915 7.31917202 -10.1875 10.625 C-10.5175 9.965 -10.8475 9.305 -11.1875 8.625 C-10.25475891 7.49605124 -9.31609878 6.37199124 -8.375 5.25 C-7.85292969 4.62351562 -7.33085938 3.99703125 -6.79296875 3.3515625 C-3.17099688 -0.54359946 -3.17099688 -0.54359946 0 0 Z " fill="#6BD58F" transform="translate(597.1875,102.375)"/>
<path d="M0 0 C-0.680625 0.5878125 -0.680625 0.5878125 -1.375 1.1875 C-3.27642919 3.30832487 -4.06204028 5.33042235 -5 8 C-5.66 8 -6.32 8 -7 8 C-7 5.69 -7 3.38 -7 1 C-3.375 -1.125 -3.375 -1.125 0 0 Z " fill="#60D174" transform="translate(723,180)"/>
<path d="M0 0 C0.66 0.33 1.32 0.66 2 1 C-3.0940919 7.86214442 -3.0940919 7.86214442 -6.875 8.4375 C-7.57625 8.293125 -8.2775 8.14875 -9 8 C-8.67 7.34 -8.34 6.68 -8 6 C-7.34 6 -6.68 6 -6 6 C-4.29220027 4.37550757 -2.62449243 2.70779973 -1 1 C-0.67 0.67 -0.34 0.34 0 0 Z " fill="#98E1A5" transform="translate(713,152)"/>
<path d="M0 0 C1.49080078 0.02707031 1.49080078 0.02707031 3.01171875 0.0546875 C3.77097656 0.07789063 4.53023437 0.10109375 5.3125 0.125 C5.3125 0.455 5.3125 0.785 5.3125 1.125 C4.63703125 1.15078125 3.9615625 1.1765625 3.265625 1.203125 C-2.40885793 1.43825112 -2.40885793 1.43825112 -7.1875 4.1875 C-7.6825 4.826875 -8.1775 5.46625 -8.6875 6.125 C-9.3475 6.125 -10.0075 6.125 -10.6875 6.125 C-8.35628421 0.74527125 -5.66952152 -0.13340051 0 0 Z " fill="#5D5D5D" transform="translate(762.6875,243.875)"/>
<path d="M0 0 C0.33 1.32 0.66 2.64 1 4 C2.32 3.67 3.64 3.34 5 3 C4.67 3.99 4.34 4.98 4 6 C2.35 6 0.7 6 -1 6 C-1.33 6.99 -1.66 7.98 -2 9 C-3 6 -3 6 -1.5625 2.8125 C-1.046875 1.884375 -0.53125 0.95625 0 0 Z " fill="#8EDE9C" transform="translate(720,182)"/>
<path d="M0 0 C-0.33 0.66 -0.66 1.32 -1 2 C-1.99 1.67 -2.98 1.34 -4 1 C-4 1.66 -4 2.32 -4 3 C-4.99 2.67 -5.98 2.34 -7 2 C-8.32 2 -9.64 2 -11 2 C-7.61000833 -3.0849875 -5.18660142 -1.95938276 0 0 Z " fill="#9EE3AB" transform="translate(728,179)"/>
<path d="M0 0 C-1.44077046 3.36179774 -3.24750021 5.59156268 -6 8 C-6.66 8 -7.32 8 -8 8 C-6.48291727 4.46014029 -4.24676932 0 0 0 Z " fill="#80B3EC" transform="translate(519,152)"/>
<path d="M0 0 C0.66 0.33 1.32 0.66 2 1 C0.38405168 3.04119788 -1.2856382 5.04072937 -3 7 C-3.66 7 -4.32 7 -5 7 C-3.70700306 4.11562221 -2.34058637 2.12780579 0 0 Z " fill="#7EB2EB" transform="translate(439,153)"/>
</svg>
